<svg width="128" height="128" viewBox="0 0 128 128" fill="none" xmlns="http://www.w3.org/2000/svg">
<rect width="128" height="128" rx="32" fill="#1F1E24"/>
<path d="M36 80V68C36 66.9391 36.4214 65.9217 37.1716 65.1716C37.9217 64.4214 38.9391 64 40 64H88C89.0609 64 90.0783 64.4214 90.8284 65.1716C91.5786 65.9217 92 66.9391 92 68V80M64 64V48M84 80H100C102.209 80 104 81.7909 104 84V100C104 102.209 102.209 104 100 104H84C81.7909 104 80 102.209 80 100V84C80 81.7909 81.7909 80 84 80ZM28 80H44C46.2091 80 48 81.7909 48 84V100C48 102.209 46.2091 104 44 104H28C25.7909 104 24 102.209 24 100V84C24 81.7909 25.7909 80 28 80ZM56 24H72C74.2091 24 76 25.7909 76 28V44C76 46.2091 74.2091 48 72 48H56C53.7909 48 52 46.2091 52 44V28C52 25.7909 53.7909 24 56 24Z" stroke="white" stroke-width="10" stroke-linecap="round" stroke-linejoin="round"/>
</svg>
