<svg width="128" height="128" viewBox="0 0 128 128" fill="none" xmlns="http://www.w3.org/2000/svg">
<rect width="128" height="128" rx="32" fill="#1F1E24"/>
<path d="M69.6 24H40C37.8783 24 35.8434 24.8428 34.3431 26.3431C32.8429 27.8434 32 29.8783 32 32V96C32 98.1217 32.8429 100.157 34.3431 101.657C35.8434 103.157 37.8783 104 40 104H88C90.1217 104 92.1566 103.157 93.6569 101.657C95.1571 100.157 96 98.1217 96 96V66.4M24 40H40M24 56H40M24 72H40M24 88H40M101.512 38.504C103.105 36.9106 104.001 34.7494 104.001 32.496C104.001 30.2425 103.105 28.0814 101.512 26.488C99.9186 24.8946 97.7574 23.9994 95.504 23.9994C93.2506 23.9994 91.0894 24.8946 89.496 26.488L69.456 46.536C68.505 47.4865 67.8089 48.6613 67.432 49.952L64.084 61.432C63.9836 61.7762 63.9776 62.141 64.0666 62.4883C64.1556 62.8357 64.3363 63.1527 64.5898 63.4062C64.8433 63.6597 65.1603 63.8404 65.5076 63.9294C65.855 64.0184 66.2198 64.0124 66.564 63.912L78.044 60.564C79.3347 60.1871 80.5095 59.491 81.46 58.54L101.512 38.504Z" stroke="white" stroke-width="8" stroke-linecap="round" stroke-linejoin="round"/>
</svg>
