<svg width="128" height="128" viewBox="0 0 128 128" fill="none" xmlns="http://www.w3.org/2000/svg">
<rect width="128" height="128" rx="32" fill="#1F1E24"/>
<path d="M76 64H56M76 48H56M92 84V36C92 33.8783 91.1571 31.8434 89.6569 30.3431C88.1566 28.8429 86.1217 28 84 28H32M32 28C34.1217 28 36.1566 28.8429 37.6569 30.3431C39.1571 31.8434 40 33.8783 40 36V92C40 94.1217 40.8429 96.1566 42.3431 97.6569C43.8434 99.1571 45.8783 100 48 100M32 28C29.8783 28 27.8434 28.8429 26.3431 30.3431C24.8429 31.8434 24 33.8783 24 36V44C24 45.0609 24.4214 46.0783 25.1716 46.8284C25.9217 47.5786 26.9391 48 28 48H40M48 100H96C98.1217 100 100.157 99.1571 101.657 97.6569C103.157 96.1566 104 94.1217 104 92V88C104 86.9391 103.579 85.9217 102.828 85.1716C102.078 84.4214 101.061 84 100 84H60C58.9391 84 57.9217 84.4214 57.1716 85.1716C56.4214 85.9217 56 86.9391 56 88V92C56 94.1217 55.1571 96.1566 53.6569 97.6569C52.1566 99.1571 50.1217 100 48 100Z" stroke="white" stroke-width="8" stroke-linecap="round" stroke-linejoin="round"/>
</svg>
