<svg width="128" height="128" viewBox="0 0 128 128" fill="none" xmlns="http://www.w3.org/2000/svg">
<rect width="128" height="128" rx="32" fill="#1F1E24"/>
<path d="M87.0194 95.124C87.0194 96.4667 86.5247 97.6327 85.5354 98.622C84.6167 99.5407 83.5214 100 82.2494 100H45.7854C44.5134 100 43.3827 99.5407 42.3934 98.622C41.4747 97.6327 41.0154 96.4667 41.0154 95.124V33.22C41.0154 31.8067 41.4747 30.6407 42.3934 29.722C43.3827 28.8033 44.5134 28.344 45.7854 28.344H82.2494C83.5214 28.344 84.6167 28.8033 85.5354 29.722C86.5247 30.6407 87.0194 31.8067 87.0194 33.22V36.082C87.0194 37.4247 86.5247 38.5907 85.5354 39.58C84.6167 40.4987 83.5214 40.958 82.2494 40.958H54.9014C54.0534 40.958 53.6294 41.4173 53.6294 42.336V56.434C53.6294 57.4233 54.0534 57.918 54.9014 57.918H78.4334C79.8467 57.918 81.0127 58.3773 81.9314 59.296C82.8501 60.2147 83.3094 61.3453 83.3094 62.688V65.656C83.3094 66.9987 82.8501 68.1647 81.9314 69.154C81.0127 70.0727 79.8467 70.532 78.4334 70.532H54.9014C54.0534 70.532 53.6294 70.956 53.6294 71.804V86.114C53.6294 87.0327 54.0534 87.492 54.9014 87.492H82.2494C83.5214 87.492 84.6167 87.9513 85.5354 88.87C86.5247 89.7887 87.0194 90.9547 87.0194 92.368V95.124Z" fill="white"/>
</svg>
