<svg width="128" height="128" viewBox="0 0 128 128" fill="none" xmlns="http://www.w3.org/2000/svg">
<rect width="128" height="128" rx="32" fill="#1F1E24"/>
<path d="M48.25 73V66.25C48.25 65.6533 48.4871 65.081 48.909 64.659C49.331 64.2371 49.9033 64 50.5 64H77.5C78.0967 64 78.669 64.2371 79.091 64.659C79.5129 65.081 79.75 65.6533 79.75 66.25V73M64 64V55M75.25 73H84.25C85.4926 73 86.5 74.0074 86.5 75.25V84.25C86.5 85.4926 85.4926 86.5 84.25 86.5H75.25C74.0074 86.5 73 85.4926 73 84.25V75.25C73 74.0074 74.0074 73 75.25 73ZM43.75 73H52.75C53.9926 73 55 74.0074 55 75.25V84.25C55 85.4926 53.9926 86.5 52.75 86.5H43.75C42.5074 86.5 41.5 85.4926 41.5 84.25V75.25C41.5 74.0074 42.5074 73 43.75 73ZM59.5 41.5H68.5C69.7426 41.5 70.75 42.5074 70.75 43.75V52.75C70.75 53.9926 69.7426 55 68.5 55H59.5C58.2574 55 57.25 53.9926 57.25 52.75V43.75C57.25 42.5074 58.2574 41.5 59.5 41.5Z" stroke="white" stroke-width="6" stroke-linecap="round" stroke-linejoin="round"/>
<path d="M92 28H36C31.5817 28 28 31.5817 28 36V92C28 96.4183 31.5817 100 36 100H92C96.4183 100 100 96.4183 100 92V36C100 31.5817 96.4183 28 92 28Z" stroke="white" stroke-width="10" stroke-linecap="round" stroke-linejoin="round"/>
</svg>
